<?xml version="1.0" encoding="UTF-8" standalone="no"?>
<svg width="32px" height="32px" viewBox="0 0 32 32" version="1.1" xmlns="http://www.w3.org/2000/svg" xmlns:xlink="http://www.w3.org/1999/xlink" xmlns:sketch="http://www.bohemiancoding.com/sketch/ns">
    <!-- Generator: Sketch 3.0.1 (7597) - http://www.bohemiancoding.com/sketch -->
    <title>Shape</title>
    <description>Created with Sketch.</description>
    <defs></defs>
    <g id="Page-1" stroke="none" stroke-width="1" fill="none" fill-rule="evenodd" sketch:type="MSPage">
        <g id="happy" sketch:type="MSLayerGroup" fill="#9B9B9B">
            <path d="M16,32 C24.837,32 32,24.837 32,16 C32,7.163 24.837,0 16,0 C7.163,0 0,7.163 0,16 C0,24.837 7.163,32 16,32 L16,32 Z M16,3 C23.18,3 29,8.82 29,16 C29,23.18 23.18,29 16,29 C8.82,29 3,23.18 3,16 C3,8.82 8.82,3 16,3 L16,3 Z M16,18.711 C19.623,18.711 23.07,17.748 26,16.057 C25.545,21.633 21.215,25.999 16,25.999 C10.785,25.999 6.456,21.628 6,16.052 C8.93,17.743 12.377,18.71 16,18.71 L16,18.711 Z M8,11 C8,9.343 8.895,8 10,8 C11.105,8 12,9.343 12,11 C12,12.657 11.105,14 10,14 C8.895,14 8,12.657 8,11 L8,11 Z M20,11 C20,9.343 20.895,8 22,8 C23.105,8 24,9.343 24,11 C24,12.657 23.105,14 22,14 C20.895,14 20,12.657 20,11 L20,11 Z" id="Shape" sketch:type="MSShapeGroup"></path>
        </g>
    </g>
</svg>