<?xml version="1.0" encoding="UTF-8" standalone="no"?>
<svg width="25px" height="15px" viewBox="0 0 25 15" version="1.1" xmlns="http://www.w3.org/2000/svg" xmlns:xlink="http://www.w3.org/1999/xlink" xmlns:sketch="http://www.bohemiancoding.com/sketch/ns">
    <!-- Generator: Sketch 3.2.2 (9983) - http://www.bohemiancoding.com/sketch -->
    <title>parent</title>
    <desc>Created with Sketch.</desc>
    <defs></defs>
    <g id="Page-1" stroke="none" stroke-width="1" fill="none" fill-rule="evenodd" sketch:type="MSPage">
        <g id="Artboard-1" sketch:type="MSArtboardGroup" transform="translate(-589.000000, -4397.000000)" fill="#333333">
            <path d="M590.38158,4397.75 C590.084545,4397.75 589.84375,4397.99581 589.84375,4398.3296 L589.84375,4399.46728 C589.84375,4399.78738 590.077575,4400.04688 590.38158,4400.04688 L612.93092,4400.04688 C613.227955,4400.04688 613.46875,4399.80107 613.46875,4399.46728 L613.46875,4398.3296 C613.46875,4398.0095 613.234925,4397.75 612.93092,4397.75 L590.38158,4397.75 L590.38158,4397.75 Z M590.38158,4403.49219 C590.084545,4403.49219 589.84375,4403.73799 589.84375,4404.07179 L589.84375,4405.20946 C589.84375,4405.52957 590.077575,4405.78906 590.38158,4405.78906 L612.93092,4405.78906 C613.227955,4405.78906 613.46875,4405.54326 613.46875,4405.20946 L613.46875,4404.07179 C613.46875,4403.75168 613.234925,4403.49219 612.93092,4403.49219 L590.38158,4403.49219 L590.38158,4403.49219 Z M590.38158,4409.23438 C590.084545,4409.23438 589.84375,4409.48018 589.84375,4409.81397 L589.84375,4410.95165 C589.84375,4411.27175 590.077575,4411.53125 590.38158,4411.53125 L612.93092,4411.53125 C613.227955,4411.53125 613.46875,4411.28544 613.46875,4410.95165 L613.46875,4409.81397 C613.46875,4409.49387 613.234925,4409.23438 612.93092,4409.23438 L590.38158,4409.23438 L590.38158,4409.23438 Z" id="parent" sketch:type="MSShapeGroup"></path>
        </g>
    </g>
</svg>